<svg width="18" height="16" viewBox="0 0 18 16" fill="none" xmlns="http://www.w3.org/2000/svg">
<path d="M0.0474282 8.20397C0.0242024 8.13598 0.000976562 8.04533 0.000976562 7.97734C0.000976562 7.8187 0.070654 7.66006 0.233235 7.50142L8.68743 0.135977C8.80356 0.0453258 8.91969 0 9.01259 0L9.33775 0.135977L17.7687 7.50142C17.9313 7.63739 18.001 7.79603 18.001 7.97734C18.001 8.04533 17.9778 8.13598 17.9545 8.20397C17.8616 8.45326 17.6294 8.58924 17.3042 8.58924H15.9571V16H10.9171V11.5354C10.9171 11.2861 10.7081 11.1048 10.4758 11.1048H7.57259C7.31711 11.1048 7.1313 11.3088 7.1313 11.5354V16H2.04485V8.58924H0.697751C0.372589 8.58924 0.163557 8.45326 0.0474282 8.20397Z" fill="#4F5361"/>
</svg>
