<svg width="15" height="11" viewBox="0 0 15 11" fill="none" xmlns="http://www.w3.org/2000/svg">
<path d="M7.2959 0.765625C4.11408 0.765625 1.39681 2.83896 0.295898 5.76562C1.39681 8.69229 4.11408 10.7656 7.2959 10.7656C10.4777 10.7656 13.195 8.69229 14.2959 5.76562C13.195 2.83896 10.4777 0.765625 7.2959 0.765625ZM7.2959 9.09896C5.53953 9.09896 4.11408 7.60563 4.11408 5.76562C4.11408 3.92563 5.53953 2.43229 7.2959 2.43229C9.05226 2.43229 10.4777 3.92563 10.4777 5.76562C10.4777 7.60563 9.05226 9.09896 7.2959 9.09896ZM7.2959 3.76562C6.23953 3.76562 5.38681 4.65896 5.38681 5.76562C5.38681 6.87229 6.23953 7.76562 7.2959 7.76562C8.35226 7.76562 9.20499 6.87229 9.20499 5.76562C9.20499 4.65896 8.35226 3.76562 7.2959 3.76562Z" fill="#B4C1D0"/>
</svg>
